<?xml version="1.0" encoding="UTF-8" standalone="no"?><!DOCTYPE svg PUBLIC "-//W3C//DTD SVG 1.1//EN" "http://www.w3.org/Graphics/SVG/1.1/DTD/svg11.dtd"><!-- Generated by graphviz version 2.40.1 (20161225.0304)
 --><!-- Title: G Pages: 1 --><svg xmlns="http://www.w3.org/2000/svg" xmlns:xlink="http://www.w3.org/1999/xlink" width="314pt" height="310pt" viewBox="0.00 0.00 314.01 310.40">
<g id="graph0" class="graph" transform="scale(1 1) rotate(0) translate(4 306.4)">
<title>G</title>
<polygon fill="#ffffff" stroke="transparent" points="-4,4 -4,-306.4 310.0134,-306.4 310.0134,4 -4,4"/>
<!-- 1 -->
<g id="node1" class="node">
<title>1</title>
<ellipse fill="none" stroke="#000000" cx="150" cy="-284.4" rx="27" ry="18"/>
<text text-anchor="middle" x="150" y="-280.2" font-family="Times,serif" font-size="14.00" fill="#000000">1</text>
</g>
<!-- 2 -->
<g id="node2" class="node">
<title>2</title>
<ellipse fill="none" stroke="#000000" cx="90" cy="-195.6" rx="27" ry="18"/>
<text text-anchor="middle" x="90" y="-191.4" font-family="Times,serif" font-size="14.00" fill="#000000">2</text>
</g>
<!-- 1&#45;&gt;2 -->
<g id="edge1" class="edge">
<title>1-&gt;2</title>
<path fill="none" stroke="#0000ff" d="M127.9646,-273.8091C117.7252,-267.7697 106.3232,-259.2294 99.4642,-248.4 94.9094,-241.2086 92.4007,-232.4213 91.0576,-224.0945"/>
<polygon fill="#0000ff" stroke="#0000ff" points="94.5121,-223.4931 89.9134,-213.9483 87.5561,-224.2776 94.5121,-223.4931"/>
<text text-anchor="start" x="99" y="-236.8" font-family="Times,serif" font-weight="bold" font-size="14.00" fill="#000000">'havy'</text>
</g>
<!-- 4 -->
<g id="node4" class="node">
<title>4</title>
<ellipse fill="none" stroke="#000000" cx="120" cy="-18" rx="27" ry="18"/>
<text text-anchor="middle" x="120" y="-13.8" font-family="Times,serif" font-size="14.00" fill="#000000">4</text>
</g>
<!-- 1&#45;&gt;4 -->
<g id="edge5" class="edge">
<title>1-&gt;4</title>
<path fill="none" stroke="#00ff00" d="M149.6133,-266.2329C148.6735,-231.5613 145.5898,-153.6316 136,-88.8 133.8757,-74.4388 130.4232,-58.6652 127.268,-45.6588"/>
<polygon fill="#00ff00" stroke="#00ff00" points="130.65,-44.7557 124.8324,-35.901 123.8584,-46.4509 130.65,-44.7557"/>
<text text-anchor="start" x="143" y="-148" font-family="Times,serif" font-weight="bold" font-size="14.00" fill="#000000">'metal (SYN)'</text>
</g>
<!-- 1&#45;&gt;4 -->
<g id="edge6" class="edge">
<title>1-&gt;4</title>
<path fill="none" stroke="#00ff00" d="M167.4863,-270.2009C195.7216,-245.4328 246.4235,-192.2437 228,-142.8 211.6799,-99.0012 172.3068,-60.3473 145.8863,-38.0653"/>
<polygon fill="#00ff00" stroke="#00ff00" points="148.0869,-35.3435 138.1425,-31.6883 143.637,-40.7471 148.0869,-35.3435"/>
<text text-anchor="start" x="231" y="-148" font-family="Times,serif" font-weight="bold" font-size="14.00" fill="#000000">'rock (HYP)'</text>
</g>
<!-- 3 -->
<g id="node3" class="node">
<title>3</title>
<ellipse fill="none" stroke="#000000" cx="27" cy="-106.8" rx="27" ry="18"/>
<text text-anchor="middle" x="27" y="-102.6" font-family="Times,serif" font-size="14.00" fill="#000000">3</text>
</g>
<!-- 2&#45;&gt;3 -->
<g id="edge2" class="edge">
<title>2-&gt;3</title>
<path fill="none" stroke="#0000ff" d="M67.0428,-185.8765C55.7906,-179.928 43.0791,-171.2078 35.5778,-159.6 30.9705,-152.4704 28.5597,-143.7007 27.3643,-135.3711"/>
<polygon fill="#0000ff" stroke="#0000ff" points="30.831,-134.848 26.4263,-125.2122 23.8606,-135.4917 30.831,-134.848"/>
<text text-anchor="start" x="36" y="-148" font-family="Times,serif" font-weight="bold" font-size="14.00" fill="#000000">'metal'</text>
</g>
<!-- 2&#45;&gt;4 -->
<g id="edge3" class="edge">
<title>2-&gt;4</title>
<path fill="none" stroke="#0000ff" d="M91.9098,-177.3829C94.2604,-156.0633 98.6251,-119.7358 104.1276,-88.8 106.6689,-74.5124 110.1373,-58.7462 113.1838,-45.7256"/>
<polygon fill="#0000ff" stroke="#0000ff" points="116.5992,-46.4914 115.5107,-35.9526 109.7896,-44.87 116.5992,-46.4914"/>
<text text-anchor="start" x="104" y="-103.6" font-family="Times,serif" font-weight="bold" font-size="14.00" fill="#000000">'iron'</text>
</g>
<!-- 3&#45;&gt;4 -->
<g id="edge4" class="edge">
<title>3-&gt;4</title>
<path fill="none" stroke="#0000ff" d="M28.2768,-88.6169C29.9107,-77.5074 33.5853,-63.6323 41.8036,-54 52.8644,-41.0361 69.5851,-32.4787 84.7296,-26.9743"/>
<polygon fill="#0000ff" stroke="#0000ff" points="85.9839,-30.246 94.3787,-23.7824 83.7854,-23.6002 85.9839,-30.246"/>
<text text-anchor="start" x="42" y="-59.2" font-family="Times,serif" font-weight="bold" font-size="14.00" fill="#000000">'rock'</text>
</g>
</g>
</svg>