<?xml version="1.0" encoding="UTF-8" standalone="no"?><!DOCTYPE svg PUBLIC "-//W3C//DTD SVG 1.1//EN" "http://www.w3.org/Graphics/SVG/1.1/DTD/svg11.dtd"><!-- Generated by graphviz version 2.40.1 (20161225.0304)
 --><!-- Title: G Pages: 1 --><svg xmlns="http://www.w3.org/2000/svg" xmlns:xlink="http://www.w3.org/1999/xlink" width="123pt" height="310pt" viewBox="0.00 0.00 122.87 310.40">
<g id="graph0" class="graph" transform="scale(1 1) rotate(0) translate(4 306.4)">
<title>G</title>
<polygon fill="#ffffff" stroke="transparent" points="-4,4 -4,-306.4 118.8724,-306.4 118.8724,4 -4,4"/>
<!-- 1 -->
<g id="node1" class="node">
<title>1</title>
<ellipse fill="none" stroke="#000000" cx="60" cy="-284.4" rx="27" ry="18"/>
<text text-anchor="middle" x="60" y="-280.2" font-family="Times,serif" font-size="14.00" fill="#000000">1</text>
</g>
<!-- 2 -->
<g id="node2" class="node">
<title>2</title>
<ellipse fill="none" stroke="#000000" cx="60" cy="-195.6" rx="27" ry="18"/>
<text text-anchor="middle" x="60" y="-191.4" font-family="Times,serif" font-size="14.00" fill="#000000">2</text>
</g>
<!-- 1&#45;&gt;2 -->
<g id="edge1" class="edge">
<title>1-&gt;2</title>
<path fill="none" stroke="#0000ff" d="M60,-266.0006C60,-253.8949 60,-237.8076 60,-224.0674"/>
<polygon fill="#0000ff" stroke="#0000ff" points="63.5001,-223.672 60,-213.672 56.5001,-223.6721 63.5001,-223.672"/>
<text text-anchor="start" x="60" y="-236.8" font-family="Times,serif" font-weight="bold" font-size="14.00" fill="#000000">'havy'</text>
</g>
<!-- 3 -->
<g id="node3" class="node">
<title>3</title>
<ellipse fill="none" stroke="#000000" cx="27" cy="-106.8" rx="27" ry="18"/>
<text text-anchor="middle" x="27" y="-102.6" font-family="Times,serif" font-size="14.00" fill="#000000">3</text>
</g>
<!-- 2&#45;&gt;3 -->
<g id="edge2" class="edge">
<title>2-&gt;3</title>
<path fill="none" stroke="#0000ff" d="M44.835,-180.376C39.7785,-174.3859 34.6766,-167.1393 31.6872,-159.6 28.6683,-151.9862 27.182,-143.2848 26.5275,-135.1721"/>
<polygon fill="#0000ff" stroke="#0000ff" points="30.0159,-134.8269 26.0873,-124.9874 23.0225,-135.1292 30.0159,-134.8269"/>
<text text-anchor="start" x="31" y="-148" font-family="Times,serif" font-weight="bold" font-size="14.00" fill="#000000">'metall'</text>
</g>
<!-- 4 -->
<g id="node4" class="node">
<title>4</title>
<ellipse fill="none" stroke="#000000" cx="58" cy="-18" rx="27" ry="18"/>
<text text-anchor="middle" x="58" y="-13.8" font-family="Times,serif" font-size="14.00" fill="#000000">4</text>
</g>
<!-- 2&#45;&gt;4 -->
<g id="edge3" class="edge">
<title>2-&gt;4</title>
<path fill="none" stroke="#0000ff" d="M69.3402,-178.5174C72.0462,-172.6911 74.637,-166.0229 76,-159.6 85.743,-113.6891 86.7831,-99.6778 76,-54 75.2294,-50.7356 74.1149,-47.4298 72.8127,-44.2127"/>
<polygon fill="#0000ff" stroke="#0000ff" points="75.8961,-42.5432 68.4986,-34.9585 69.5516,-45.5009 75.8961,-42.5432"/>
<text text-anchor="start" x="83" y="-103.6" font-family="Times,serif" font-weight="bold" font-size="14.00" fill="#000000">'iron'</text>
</g>
<!-- 3&#45;&gt;4 -->
<g id="edge4" class="edge">
<title>3-&gt;4</title>
<path fill="none" stroke="#0000ff" d="M31.2846,-88.9913C33.9464,-78.6551 37.6473,-65.4551 41.8036,-54 42.9256,-50.9076 44.1963,-47.7093 45.5204,-44.5534"/>
<polygon fill="#0000ff" stroke="#0000ff" points="48.7407,-45.9249 49.558,-35.3616 42.3317,-43.1097 48.7407,-45.9249"/>
<text text-anchor="start" x="41" y="-59.2" font-family="Times,serif" font-weight="bold" font-size="14.00" fill="#000000">'rock'</text>
</g>
</g>
</svg>